<svg xmlns="http://www.w3.org/2000/svg" width="22" height="20" viewBox="0 0 22 20">
  <defs>
    <style>
      .cls-1 {
        fill: #fff;
        fill-rule: evenodd;
      }
    </style>
  </defs>
  <path id="cart.svg" class="cls-1" d="M1272.73,38.605a1.178,1.178,0,0,0-.87-0.384h-15.79l-0.22-1.293a1.135,1.135,0,0,0-1.13-.929h-2.57a1.111,1.111,0,1,0,0,2.222h1.6l2.13,12.4a0.685,0.685,0,0,0,.05.138,1,1,0,0,0,.06.168,1.512,1.512,0,0,0,.14.2,0.881,0.881,0,0,0,.11.125,0.867,0.867,0,0,0,.22.143,0.7,0.7,0,0,0,.13.073,1.1,1.1,0,0,0,.42.083h12.57a1.111,1.111,0,1,0,0-2.222h-11.61l-0.19-1.111h12.94a1.131,1.131,0,0,0,1.13-.953l1.14-7.778A1.1,1.1,0,0,0,1272.73,38.605Zm-2.18,1.839-0.33,2.222h-4.07V40.444h4.4Zm-5.54,0v2.222h-3.43V40.444h3.43Zm0,3.333V46h-3.43V43.777h3.43Zm-4.58-3.333v2.222h-3.42a0.558,0.558,0,0,0-.17.033l-0.39-2.255h3.98Zm-3.41,3.333h3.41V46h-3.03ZM1266.15,46V43.777h3.9L1269.73,46h-3.58Zm-7.43,6.667a1.667,1.667,0,1,1-1.71,1.666A1.685,1.685,0,0,1,1258.72,52.666Zm10.29,0a1.667,1.667,0,1,1-1.72,1.666A1.692,1.692,0,0,1,1269.01,52.666Z" transform="translate(-1251 -36)"/>
</svg>
